<svg width="1000" height="500" viewBox="0 0 1000 500" fill="none" xmlns="http://www.w3.org/2000/svg">
<path d="M186.837 174.762V203.532H126.777V234.612H171.717V262.542H126.777V322.182H90.8667V174.762H186.837ZM241.62 166.782V322.182H205.71V166.782H241.62ZM285.704 192.822C279.404 192.822 274.224 191.002 270.164 187.362C266.244 183.582 264.284 178.962 264.284 173.502C264.284 167.902 266.244 163.282 270.164 159.642C274.224 155.862 279.404 153.972 285.704 153.972C291.864 153.972 296.904 155.862 300.824 159.642C304.884 163.282 306.914 167.902 306.914 173.502C306.914 178.962 304.884 183.582 300.824 187.362C296.904 191.002 291.864 192.822 285.704 192.822ZM303.554 205.002V322.182H267.644V205.002H303.554ZM365.488 221.592C368.988 216.132 373.818 211.722 379.978 208.362C386.138 205.002 393.348 203.322 401.608 203.322C411.268 203.322 420.018 205.772 427.858 210.672C435.698 215.572 441.858 222.572 446.338 231.672C450.958 240.772 453.268 251.342 453.268 263.382C453.268 275.422 450.958 286.062 446.338 295.302C441.858 304.402 435.698 311.472 427.858 316.512C420.018 321.412 411.268 323.862 401.608 323.862C393.488 323.862 386.278 322.182 379.978 318.822C373.818 315.462 368.988 311.122 365.488 305.802V378.042H329.578V205.002H365.488V221.592ZM416.728 263.382C416.728 254.422 414.208 247.422 409.168 242.382C404.268 237.202 398.178 234.612 390.898 234.612C383.758 234.612 377.668 237.202 372.628 242.382C367.728 247.562 365.278 254.632 365.278 263.592C365.278 272.552 367.728 279.622 372.628 284.802C377.668 289.982 383.758 292.572 390.898 292.572C398.038 292.572 404.128 289.982 409.168 284.802C414.208 279.482 416.728 272.342 416.728 263.382ZM519.777 323.862C509.557 323.862 500.457 322.112 492.477 318.612C484.497 315.112 478.197 310.352 473.577 304.332C468.957 298.172 466.367 291.312 465.807 283.752H501.297C501.717 287.812 503.607 291.102 506.967 293.622C510.327 296.142 514.457 297.402 519.357 297.402C523.837 297.402 527.267 296.562 529.647 294.882C532.167 293.062 533.427 290.752 533.427 287.952C533.427 284.592 531.677 282.142 528.177 280.602C524.677 278.922 519.007 277.102 511.167 275.142C502.767 273.182 495.767 271.152 490.167 269.052C484.567 266.812 479.737 263.382 475.677 258.762C471.617 254.002 469.587 247.632 469.587 239.652C469.587 232.932 471.407 226.842 475.047 221.382C478.827 215.782 484.287 211.372 491.427 208.152C498.707 204.932 507.317 203.322 517.257 203.322C531.957 203.322 543.507 206.962 551.907 214.242C560.447 221.522 565.347 231.182 566.607 243.222H533.427C532.867 239.162 531.047 235.942 527.967 233.562C525.027 231.182 521.107 229.992 516.207 229.992C512.007 229.992 508.787 230.832 506.547 232.512C504.307 234.052 503.187 236.222 503.187 239.022C503.187 242.382 504.937 244.902 508.437 246.582C512.077 248.262 517.677 249.942 525.237 251.622C533.917 253.862 540.987 256.102 546.447 258.342C551.907 260.442 556.667 263.942 560.727 268.842C564.927 273.602 567.097 280.042 567.237 288.162C567.237 295.022 565.277 301.182 561.357 306.642C557.577 311.962 552.047 316.162 544.767 319.242C537.627 322.322 529.297 323.862 519.777 323.862ZM661.237 203.742C674.677 203.742 685.457 208.222 693.577 217.182C701.697 226.002 705.757 238.182 705.757 253.722V322.182H670.057V258.552C670.057 250.712 668.027 244.622 663.967 240.282C659.907 235.942 654.447 233.772 647.587 233.772C640.727 233.772 635.267 235.942 631.207 240.282C627.147 244.622 625.117 250.712 625.117 258.552V322.182H589.207V166.782H625.117V220.752C628.757 215.572 633.727 211.442 640.027 208.362C646.327 205.282 653.397 203.742 661.237 203.742ZM748.77 192.822C742.47 192.822 737.29 191.002 733.23 187.362C729.31 183.582 727.35 178.962 727.35 173.502C727.35 167.902 729.31 163.282 733.23 159.642C737.29 155.862 742.47 153.972 748.77 153.972C754.93 153.972 759.97 155.862 763.89 159.642C767.95 163.282 769.98 167.902 769.98 173.502C769.98 178.962 767.95 183.582 763.89 187.362C759.97 191.002 754.93 192.822 748.77 192.822ZM766.62 205.002V322.182H730.71V205.002H766.62ZM828.554 221.592C832.054 216.132 836.884 211.722 843.044 208.362C849.204 205.002 856.414 203.322 864.674 203.322C874.334 203.322 883.084 205.772 890.924 210.672C898.764 215.572 904.924 222.572 909.404 231.672C914.024 240.772 916.334 251.342 916.334 263.382C916.334 275.422 914.024 286.062 909.404 295.302C904.924 304.402 898.764 311.472 890.924 316.512C883.084 321.412 874.334 323.862 864.674 323.862C856.554 323.862 849.344 322.182 843.044 318.822C836.884 315.462 832.054 311.122 828.554 305.802V378.042H792.644V205.002H828.554V221.592ZM879.794 263.382C879.794 254.422 877.274 247.422 872.234 242.382C867.334 237.202 861.244 234.612 853.964 234.612C846.824 234.612 840.734 237.202 835.694 242.382C830.794 247.562 828.344 254.632 828.344 263.592C828.344 272.552 830.794 279.622 835.694 284.802C840.734 289.982 846.824 292.572 853.964 292.572C861.104 292.572 867.194 289.982 872.234 284.802C877.274 279.482 879.794 272.342 879.794 263.382Z" fill="white"/>
</svg>
