<svg xmlns="http://www.w3.org/2000/svg" xmlns:xlink="http://www.w3.org/1999/xlink" width="500" zoomAndPan="magnify" viewBox="0 0 375 374.999991" height="500" preserveAspectRatio="xMidYMid meet" version="1.2"><defs><clipPath id="164d993c58"><path d="M 187.5 0 C 83.945312 0 0 83.945312 0 187.5 C 0 291.054688 83.945312 375 187.5 375 C 291.054688 375 375 291.054688 375 187.5 C 375 83.945312 291.054688 0 187.5 0 Z M 187.5 0 "/></clipPath></defs><g id="3ea35de23d"><g clip-rule="nonzero" clip-path="url(#164d993c58)"><rect x="0" width="375" y="0" height="374.999991" style="fill:#005cb8;fill-opacity:1;stroke:none;"/></g><g style="fill:#ffffff;fill-opacity:1;"><g transform="translate(74.697525, 253.027567)"><path style="stroke:none" d="M 100.765625 -136.28125 L 100.765625 -109.6875 L 45.234375 -109.6875 L 45.234375 -80.953125 L 86.78125 -80.953125 L 86.78125 -55.140625 L 45.234375 -55.140625 L 45.234375 0 L 12.03125 0 L 12.03125 -136.28125 Z M 100.765625 -136.28125 "/></g></g><g style="fill:#ffffff;fill-opacity:1;"><g transform="translate(180.890197, 253.027567)"><path style="stroke:none" d="M 61.34375 1.359375 C 51.382812 1.359375 42.457031 -0.253906 34.5625 -3.484375 C 26.664062 -6.722656 20.351562 -11.515625 15.625 -17.859375 C 10.90625 -24.203125 8.414062 -31.835938 8.15625 -40.765625 L 43.484375 -40.765625 C 44.003906 -35.722656 45.75 -31.875 48.71875 -29.21875 C 51.695312 -26.5625 55.582031 -25.234375 60.375 -25.234375 C 65.289062 -25.234375 69.171875 -26.363281 72.015625 -28.625 C 74.867188 -30.894531 76.296875 -34.035156 76.296875 -38.046875 C 76.296875 -41.410156 75.160156 -44.191406 72.890625 -46.390625 C 70.628906 -48.597656 67.847656 -50.410156 64.546875 -51.828125 C 61.242188 -53.253906 56.554688 -54.875 50.484375 -56.6875 C 41.679688 -59.40625 34.492188 -62.125 28.921875 -64.84375 C 23.359375 -67.5625 18.570312 -71.570312 14.5625 -76.875 C 10.550781 -82.1875 8.546875 -89.113281 8.546875 -97.65625 C 8.546875 -110.332031 13.140625 -120.265625 22.328125 -127.453125 C 31.515625 -134.640625 43.488281 -138.234375 58.25 -138.234375 C 73.257812 -138.234375 85.359375 -134.640625 94.546875 -127.453125 C 103.734375 -120.265625 108.648438 -110.265625 109.296875 -97.453125 L 73.390625 -97.453125 C 73.128906 -101.859375 71.507812 -105.320312 68.53125 -107.84375 C 65.550781 -110.363281 61.734375 -111.625 57.078125 -111.625 C 53.066406 -111.625 49.832031 -110.554688 47.375 -108.421875 C 44.914062 -106.285156 43.6875 -103.210938 43.6875 -99.203125 C 43.6875 -94.804688 45.753906 -91.378906 49.890625 -88.921875 C 54.035156 -86.460938 60.507812 -83.804688 69.3125 -80.953125 C 78.113281 -77.972656 85.265625 -75.125 90.765625 -72.40625 C 96.265625 -69.695312 101.019531 -65.753906 105.03125 -60.578125 C 109.039062 -55.398438 111.046875 -48.734375 111.046875 -40.578125 C 111.046875 -32.804688 109.070312 -25.75 105.125 -19.40625 C 101.175781 -13.070312 95.445312 -8.023438 87.9375 -4.265625 C 80.4375 -0.515625 71.570312 1.359375 61.34375 1.359375 Z M 61.34375 1.359375 "/></g></g></g></svg>