<?xml version="1.0" standalone="no"?>
<!DOCTYPE svg PUBLIC "-//W3C//DTD SVG 20010904//EN"
 "http://www.w3.org/TR/2001/REC-SVG-20010904/DTD/svg10.dtd">
<svg version="1.0" xmlns="http://www.w3.org/2000/svg"
 width="500.000000pt" height="500.000000pt" viewBox="0 0 500.000000 500.000000"
 preserveAspectRatio="xMidYMid meet">
<metadata>
Created by potrace 1.16, written by Peter Selinger 2001-2019
</metadata>
<g transform="translate(0.000000,500.000000) scale(0.100000,-0.100000)"
fill="#ffffff" stroke="none">
<path d="M800 2500 l0 -490 100 0 100 0 0 490 0 490 -100 0 -100 0 0 -490z"/>
<path d="M1215 2965 c-35 -34 -35 -106 0 -140 20 -21 34 -25 79 -25 77 0 109
28 109 95 0 67 -32 95 -109 95 -45 0 -59 -4 -79 -25z"/>
<path d="M3040 2500 l0 -490 99 0 98 0 6 213 c3 128 11 227 18 250 26 78 112
117 179 81 53 -29 59 -57 59 -316 l1 -228 100 0 100 0 0 258 c0 299 -6 335
-68 395 -90 88 -271 90 -359 5 l-33 -32 0 177 0 177 -100 0 -100 0 0 -490z"/>
<path d="M3909 2971 c-20 -16 -24 -28 -24 -76 0 -75 22 -95 105 -95 53 0 61 3
84 31 36 43 35 91 -3 130 -25 25 -37 29 -84 29 -39 0 -62 -6 -78 -19z"/>
<path d="M110 2470 l0 -460 100 0 100 0 0 180 0 180 155 0 155 0 0 85 0 85
-155 0 -155 0 0 110 0 110 170 0 170 0 0 85 0 85 -270 0 -270 0 0 -460z"/>
<path d="M1910 2721 c-45 -14 -88 -40 -109 -67 -15 -18 -22 -22 -25 -13 -2 8
-9 28 -14 44 -9 30 -9 30 -90 33 l-82 3 0 -511 0 -510 101 0 101 0 -4 189 -3
190 25 -23 c62 -58 154 -78 244 -52 73 21 118 62 158 144 33 66 33 69 33 207
0 84 -5 157 -13 182 -35 115 -133 194 -241 192 -31 0 -67 -4 -81 -8z m82 -178
c42 -38 53 -73 53 -178 0 -78 -4 -109 -19 -138 -31 -62 -103 -85 -166 -52 -51
26 -65 66 -65 190 0 126 14 167 68 191 40 18 102 12 129 -13z"/>
<path d="M2527 2719 c-55 -13 -90 -33 -125 -73 -53 -60 -56 -163 -8 -236 22
-34 46 -50 151 -100 137 -66 155 -80 155 -116 0 -19 -8 -29 -37 -40 -46 -20
-118 -12 -221 22 -40 13 -75 24 -77 24 -3 0 -5 -37 -5 -83 l0 -83 32 -12 c67
-25 194 -36 280 -24 159 23 228 90 228 221 0 111 -40 157 -193 222 -144 61
-173 90 -125 123 32 23 89 20 175 -9 42 -14 77 -24 79 -22 8 8 54 119 54 131
0 45 -246 83 -363 55z"/>
<path d="M4587 2716 c-40 -15 -70 -36 -99 -71 -16 -19 -17 -18 -28 28 l-12 47
-84 0 -84 0 0 -510 0 -510 101 0 100 0 -3 189 -3 189 33 -29 c44 -39 131 -63
195 -55 156 21 242 153 241 371 -1 117 -19 191 -66 261 -61 90 -184 128 -291
90z m78 -162 c54 -25 70 -71 70 -194 -1 -113 -13 -154 -57 -184 -27 -19 -87
-21 -123 -4 -81 37 -101 289 -29 362 38 37 88 44 139 20z"/>
<path d="M1200 2365 l0 -355 100 0 100 0 0 355 0 355 -100 0 -100 0 0 -355z"/>
<path d="M3890 2365 l0 -355 100 0 100 0 0 355 0 355 -100 0 -100 0 0 -355z"/>
</g>
</svg>
